{
	"asset":{
		"generator":"Khronos glTF Blender I/O v3.5.30",
		"version":"2.0"
	},
	"extensionsUsed":[
		"KHR_materials_ior"
	],
	"scene":0,
	"scenes":[
		{
			"name":"Scene",
			"nodes":[
				0
			]
		}
	],
	"nodes":[
		{
			"mesh":0,
			"name":"Old red womens shoes",
			"scale":[
				13.882972717285156,
				13.882972717285156,
				13.882972717285156
			],
			"translation":[
				-0.6449999809265137,
				-0.550000011920929,
				0.11729066073894501
			]
		}
	],
	"materials":[
		{
			"doubleSided":true,
			"extensions":{
				"KHR_materials_specular":{
					"specularColorFactor":[
						0,
						0,
						0
					]
				},
				"KHR_materials_ior":{
					"ior":1.4500000476837158
				}
			},
			"name":"LoPo_u1_v1.001",
			"normalTexture":{
				"index":0,
				"scale":0.30000001192092896
			},
			"pbrMetallicRoughness":{
				"baseColorTexture":{
					"index":1
				},
				"metallicFactor":0
			}
		}
	],
	"meshes":[
		{
			"name":"LoPo.002",
			"primitives":[
				{
					"attributes":{
						"COLOR_0":0,
						"POSITION":1,
						"TEXCOORD_0":2,
						"NORMAL":3
					},
					"indices":4,
					"material":0
				}
			]
		}
	],
	"textures":[
		{
			"sampler":0,
			"source":0
		},
		{
			"sampler":0,
			"source":1
		}
	],
	"images":[
		{
			"bufferView":5,
			"mimeType":"image/jpeg",
			"name":"LoPo_u1_v1_normal"
		},
		{
			"bufferView":6,
			"mimeType":"image/jpeg",
			"name":"LoPo_u1_v1_diffuse_2"
		}
	],
	"accessors":[
		{
			"bufferView":0,
			"componentType":5123,
			"count":32243,
			"normalized":true,
			"type":"VEC4"
		},
		{
			"bufferView":1,
			"componentType":5126,
			"count":32243,
			"max":[
				0.10031408816576004,
				0.07855965942144394,
				0.10708978772163391
			],
			"min":[
				0.007100588642060757,
				-0.0008115101372823119,
				-0.14298321306705475
			],
			"type":"VEC3"
		},
		{
			"bufferView":2,
			"componentType":5126,
			"count":32243,
			"type":"VEC2"
		},
		{
			"bufferView":3,
			"componentType":5126,
			"count":32243,
			"type":"VEC3"
		},
		{
			"bufferView":4,
			"componentType":5123,
			"count":62712,
			"type":"SCALAR"
		}
	],
	"bufferViews":[
		{
			"buffer":0,
			"byteLength":257944,
			"byteOffset":0,
			"target":34962
		},
		{
			"buffer":0,
			"byteLength":386916,
			"byteOffset":257944,
			"target":34962
		},
		{
			"buffer":0,
			"byteLength":257944,
			"byteOffset":644860,
			"target":34962
		},
		{
			"buffer":0,
			"byteLength":386916,
			"byteOffset":902804,
			"target":34962
		},
		{
			"buffer":0,
			"byteLength":125424,
			"byteOffset":1289720,
			"target":34963
		},
		{
			"buffer":0,
			"byteLength":501189,
			"byteOffset":1415144
		},
		{
			"buffer":0,
			"byteLength":502825,
			"byteOffset":1916336
		}
	],
	"samplers":[
		{
			"magFilter":9729,
			"minFilter":9987
		}
	],
	"buffers":[
		{
			"byteLength":2419164,
			"uri":"data:application/octet-stream;base64,"
		}
	]
}
